<svg viewBox="0 0 24 24" xmlns="http://www.w3.org/2000/svg"><path d="M23.559 14.723a.527.527 0 0 0-.056-.12c-.139-.262-.477-.341-1.007-.231-1.653.341-2.294.131-2.526-.02 1.342-2.047 2.445-4.521 3.041-6.829.271-1.05.798-3.524.122-4.732a1.564 1.564 0 0 0-.15-.235C21.693.909 19.801.025 17.51 0c-1.495-.016-2.77.346-3.116.48a9.449 9.449 0 0 0-.516-.082 8.044 8.044 0 0 0-1.311-.128c-1.182-.018-2.204.264-3.05.84-.857-.32-4.789-1.645-7.222.08C.936 2.152.309 3.873.43 6.304c.041.818.507 3.334 1.243 5.744.46 1.506.938 2.702 1.433 3.582.553.994 1.126 1.593 1.714 1.789.448.15 1.133.144 1.858-.728.801-.963 1.59-1.825 1.945-2.207.435.236.906.363 1.39.377a.057.057 0 0 0 0 .005 11.031 11.031 0 0 0-.247.305c-.339.43-.41.52-1.5.744-.31.064-1.135.234-1.147.812-.003.122.033.23.092.327.227.423.922.61 1.015.633 1.335.334 2.505.092 3.372-.679-.017 2.231.077 4.417.345 5.087.221.553.762 1.905 2.47 1.905.25 0 .526-.03.83-.095 1.782-.382 2.555-1.169 2.855-2.906.15-.87.401-2.875.538-4.101.017-.07.036-.12.057-.136.001 0 .07-.047.427.03a.367.367 0 0 0 .045.007l.254.022.015.001c.846.039 1.911-.142 2.53-.43.644-.3 1.806-1.033 1.596-1.67zM2.371 11.876c-.744-2.435-1.178-4.885-1.212-5.572-.109-2.171.417-3.683 1.562-4.493 1.837-1.298 4.84-.54 6.108-.13-.003.003-.006.006-.01.01-2.023 2.043-1.975 5.535-1.97 5.749 0 .082.007.199.016.36.035.587.1 1.68-.073 2.918-.161 1.15.194 2.276.973 3.089.08.084.165.163.252.237-.347.372-1.1 1.193-1.903 2.158-.567.682-.96.552-1.088.509-.392-.13-.813-.587-1.238-1.322-.48-.84-.964-2.032-1.416-3.513zm6.007 5.087c-.171-.043-.327-.113-.432-.177.089-.04.237-.09.483-.141 1.283-.264 1.482-.45 1.914-1 .1-.126.212-.269.368-.443a.355.355 0 0 0 .073-.13c.171-.15.273-.11.437-.041.156.064.308.26.37.475.029.102.062.295-.046.445-.904 1.265-2.221 1.249-3.167 1.012z" fill="#000"/></svg>
